<svg width="25" height="25" viewBox="0 0 25 25" fill="none" xmlns="http://www.w3.org/2000/svg">
<path d="M24.676 12.905L13.4272 0.395912C12.9535 -0.131971 12.0436 -0.131971 11.5699 0.395912L0.321194 12.905C0.159282 13.0846 0.0530046 13.3074 0.0152834 13.5464C-0.0224379 13.7853 0.0100223 14.0301 0.108717 14.251C0.308695 14.7025 0.756145 14.9927 1.24984 14.9927H3.74956V23.7491C3.74956 24.0809 3.88124 24.399 4.11564 24.6336C4.35003 24.8682 4.66794 25 4.99942 25H8.749C9.08049 25 9.39839 24.8682 9.63279 24.6336C9.86718 24.399 9.99886 24.0809 9.99886 23.7491V18.7455H14.9983V23.7491C14.9983 24.0809 15.13 24.399 15.3644 24.6336C15.5988 24.8682 15.9167 25 16.2482 25H19.9977C20.3292 25 20.6471 24.8682 20.8815 24.6336C21.1159 24.399 21.2476 24.0809 21.2476 23.7491V14.9927H23.7473C23.9894 14.9938 24.2265 14.9243 24.4298 14.7928C24.6331 14.6613 24.7937 14.4734 24.8922 14.2521C24.9906 14.0308 25.0226 13.7855 24.9842 13.5464C24.9458 13.3072 24.8387 13.0843 24.676 12.905Z" fill="#3DA5D9"/>
</svg>
