<svg width="25" height="25" viewBox="0 0 25 25" fill="none" xmlns="http://www.w3.org/2000/svg">
<path d="M8.82353 0H14.7059V6.25H8.82353V0ZM0 18.75H5.88235V25H0V18.75ZM0 9.375H5.88235V15.625H0V9.375ZM0 0H5.88235V6.25H0V0ZM17.6471 0H23.5294V6.25H17.6471V0ZM10.2941 21.6562V25H13.3824L22.1765 15.6719L19.0588 12.3594L10.2941 21.6562ZM14.7059 12.5469V9.375H8.82353V15.625H11.8088L14.7059 12.5469ZM24.7794 11.8125L22.7059 9.60937C22.4118 9.29687 21.9559 9.29687 21.6618 9.60937L20.1029 11.2656L23.2206 14.5781L24.7794 12.9219C25.0735 12.6094 25.0735 12.125 24.7794 11.8125Z" fill="#3DA5D9"/>
</svg>
